<svg width="45" height="25" viewBox="0 0 45 25" fill="none" xmlns="http://www.w3.org/2000/svg">
<path d="M5 16.505C4.83 16.505 4.7 16.46 4.61 16.37C4.52 16.27 4.475 16.135 4.475 15.965V13.205H1.76C1.59 13.205 1.46 13.16 1.37 13.07C1.28 12.98 1.235 12.855 1.235 12.695C1.235 12.535 1.28 12.41 1.37 12.32C1.46 12.23 1.59 12.185 1.76 12.185H4.475V9.515C4.475 9.335 4.52 9.2 4.61 9.11C4.7 9.02 4.835 8.975 5.015 8.975C5.185 8.975 5.31 9.02 5.39 9.11C5.48 9.2 5.525 9.335 5.525 9.515V12.185H8.24C8.41 12.185 8.54 12.23 8.63 12.32C8.72 12.41 8.765 12.535 8.765 12.695C8.765 12.855 8.72 12.98 8.63 13.07C8.54 13.16 8.41 13.205 8.24 13.205H5.525V15.965C5.525 16.135 5.48 16.27 5.39 16.37C5.31 16.46 5.18 16.505 5 16.505ZM14.3691 17.135C13.5291 17.135 12.8141 16.93 12.2241 16.52C11.6341 16.11 11.1841 15.52 10.8741 14.75C10.5641 13.98 10.4091 13.05 10.4091 11.96C10.4091 11.04 10.5041 10.23 10.6941 9.53C10.8941 8.83 11.1791 8.24 11.5491 7.76C11.9291 7.28 12.3841 6.915 12.9141 6.665C13.4541 6.415 14.0641 6.29 14.7441 6.29C15.2041 6.29 15.6741 6.375 16.1541 6.545C16.6341 6.705 17.0641 6.95 17.4441 7.28C17.5541 7.36 17.6241 7.465 17.6541 7.595C17.6941 7.715 17.6991 7.835 17.6691 7.955C17.6391 8.065 17.5791 8.16 17.4891 8.24C17.4091 8.32 17.3091 8.365 17.1891 8.375C17.0691 8.385 16.9391 8.345 16.7991 8.255C16.4591 7.985 16.1141 7.79 15.7641 7.67C15.4141 7.55 15.0641 7.49 14.7141 7.49C14.0841 7.49 13.5491 7.65 13.1091 7.97C12.6691 8.28 12.3341 8.745 12.1041 9.365C11.8741 9.985 11.7591 10.76 11.7591 11.69V13.025H11.6091C11.6791 12.465 11.8441 11.985 12.1041 11.585C12.3741 11.185 12.7241 10.875 13.1541 10.655C13.5841 10.435 14.0591 10.325 14.5791 10.325C15.1991 10.325 15.7441 10.47 16.2141 10.76C16.6941 11.05 17.0691 11.445 17.3391 11.945C17.6191 12.445 17.7591 13.025 17.7591 13.685C17.7591 14.345 17.6141 14.94 17.3241 15.47C17.0341 15.99 16.6341 16.4 16.1241 16.7C15.6141 16.99 15.0291 17.135 14.3691 17.135ZM14.2791 15.98C14.7091 15.98 15.0841 15.885 15.4041 15.695C15.7241 15.505 15.9741 15.24 16.1541 14.9C16.3441 14.56 16.4391 14.17 16.4391 13.73C16.4391 13.29 16.3441 12.9 16.1541 12.56C15.9741 12.22 15.7241 11.955 15.4041 11.765C15.0841 11.575 14.7091 11.48 14.2791 11.48C13.8491 11.48 13.4741 11.575 13.1541 11.765C12.8341 11.955 12.5791 12.22 12.3891 12.56C12.2091 12.9 12.1191 13.29 12.1191 13.73C12.1191 14.17 12.2091 14.56 12.3891 14.9C12.5791 15.24 12.8341 15.505 13.1541 15.695C13.4741 15.885 13.8491 15.98 14.2791 15.98ZM20.4383 17C20.1983 17 20.0183 16.945 19.8983 16.835C19.7883 16.715 19.7333 16.555 19.7333 16.355C19.7333 16.235 19.7633 16.115 19.8233 15.995C19.8833 15.875 19.9733 15.755 20.0933 15.635L23.3783 12.11C23.8783 11.58 24.2383 11.09 24.4583 10.64C24.6783 10.19 24.7883 9.735 24.7883 9.275C24.7883 8.695 24.6083 8.255 24.2483 7.955C23.8983 7.645 23.3833 7.49 22.7033 7.49C22.2833 7.49 21.8783 7.56 21.4883 7.7C21.1083 7.83 20.7333 8.035 20.3633 8.315C20.2233 8.415 20.0933 8.46 19.9733 8.45C19.8533 8.44 19.7483 8.395 19.6583 8.315C19.5783 8.225 19.5183 8.125 19.4783 8.015C19.4483 7.895 19.4533 7.77 19.4933 7.64C19.5333 7.51 19.6183 7.4 19.7483 7.31C20.1583 6.99 20.6333 6.74 21.1733 6.56C21.7133 6.38 22.2683 6.29 22.8383 6.29C23.5583 6.29 24.1633 6.405 24.6533 6.635C25.1533 6.855 25.5333 7.18 25.7933 7.61C26.0533 8.03 26.1833 8.545 26.1833 9.155C26.1833 9.575 26.1133 9.99 25.9733 10.4C25.8333 10.8 25.6233 11.21 25.3433 11.63C25.0733 12.05 24.7233 12.485 24.2933 12.935L21.1733 16.22V15.815H26.0933C26.2933 15.815 26.4433 15.865 26.5433 15.965C26.6533 16.065 26.7083 16.21 26.7083 16.4C26.7083 16.59 26.6533 16.74 26.5433 16.85C26.4433 16.95 26.2933 17 26.0933 17H20.4383Z" fill="#898989"/>
<rect x="43.5" width="1" height="25" fill="#C4C4C4"/>
</svg>
